<svg width="215" height="389" viewBox="0 0 215 389" fill="none" xmlns="http://www.w3.org/2000/svg">
<path d="M127.146 41.0708L127.256 40.8517L127.29 40.6091L127.325 40.3619C129.061 28.0235 130.816 15.5603 129.572 2.98433C164.644 25.9069 193.911 59.5641 206.961 100.411C214.607 130.919 216.44 161.327 205.135 189.686C204.088 191.779 203.044 193.9 201.993 196.035C195.276 209.679 188.272 223.906 178.477 235.41C168.953 245.924 158.453 255.012 147.874 264.152L147.669 264.33C137.172 273.399 126.603 282.532 116.995 293.09L116.974 293.114L116.953 293.139C107.289 304.716 99.5227 316.411 93.6653 328.025L93.6363 328.082L93.6124 328.142C86.1847 346.663 84.0934 365.257 85.5592 385.352C48.5915 360.642 19.2258 326.837 6.14807 282.192C-10.9337 219.467 20.8369 157.861 72.8806 120.418L72.8807 120.418C108.804 94.567 122.254 55.2018 126.094 43.9637C126.605 42.4697 126.945 41.4728 127.146 41.0708Z" fill="#114FC1" stroke="white" stroke-width="10"/>
</svg>
